<svg width="1440" height="30" viewBox="0 0 1440 30" fill="none" xmlns="http://www.w3.org/2000/svg">
<g clip-path="url(#clip0_5_477)">
<path d="M0 7.07129L6.98788 0.000221674L13.9758 7.07129" stroke="#282828" stroke-opacity="0.2" stroke-width="2"/>
<path d="M12.8472 7.07129L19.8351 0.000221674L26.8229 7.07129" stroke="#282828" stroke-opacity="0.2" stroke-width="2"/>
<path d="M25.6943 7.07129L32.6822 0.000221674L39.6701 7.07129" stroke="#282828" stroke-opacity="0.2" stroke-width="2"/>
<path d="M38.541 7.07129L45.5289 0.000221674L52.5168 7.07129" stroke="#282828" stroke-opacity="0.2" stroke-width="2"/>
<path d="M51.3882 7.07129L58.3761 0.000221674L65.3639 7.07129" stroke="#282828" stroke-opacity="0.2" stroke-width="2"/>
<path d="M64.2354 7.07129L71.2232 0.000221674L78.2111 7.07129" stroke="#282828" stroke-opacity="0.2" stroke-width="2"/>
<path d="M77.0825 7.07129L84.0704 0.000221674L91.0583 7.07129" stroke="#282828" stroke-opacity="0.2" stroke-width="2"/>
<path d="M89.9297 7.07129L96.9176 0.000221674L103.905 7.07129" stroke="#282828" stroke-opacity="0.2" stroke-width="2"/>
<path d="M102.776 7.07129L109.764 0.000221674L116.752 7.07129" stroke="#282828" stroke-opacity="0.2" stroke-width="2"/>
<path d="M115.624 7.07129L122.611 0.000221674L129.599 7.07129" stroke="#282828" stroke-opacity="0.2" stroke-width="2"/>
<path d="M128.471 7.07129L135.459 0.000221674L142.446 7.07129" stroke="#282828" stroke-opacity="0.2" stroke-width="2"/>
<path d="M141.318 7.07129L148.306 0.000221674L155.294 7.07129" stroke="#282828" stroke-opacity="0.2" stroke-width="2"/>
<path d="M154.165 7.07129L161.152 0.000221674L168.14 7.07129" stroke="#282828" stroke-opacity="0.2" stroke-width="2"/>
<path d="M167.012 7.07129L174 0.000221674L180.987 7.07129" stroke="#282828" stroke-opacity="0.2" stroke-width="2"/>
<path d="M179.859 7.07129L186.847 0.000221674L193.835 7.07129" stroke="#282828" stroke-opacity="0.2" stroke-width="2"/>
<path d="M192.706 7.07129L199.694 0.000221674L206.682 7.07129" stroke="#282828" stroke-opacity="0.2" stroke-width="2"/>
<path d="M205.553 7.07129L212.541 0.000221674L219.529 7.07129" stroke="#282828" stroke-opacity="0.2" stroke-width="2"/>
<path d="M218.4 7.07129L225.388 0.000221674L232.376 7.07129" stroke="#282828" stroke-opacity="0.2" stroke-width="2"/>
<path d="M231.247 7.07129L238.235 0.000221674L245.223 7.07129" stroke="#282828" stroke-opacity="0.2" stroke-width="2"/>
<path d="M244.094 7.07129L251.082 0.000221674L258.07 7.07129" stroke="#282828" stroke-opacity="0.2" stroke-width="2"/>
<path d="M256.941 7.07129L263.929 0.000221674L270.917 7.07129" stroke="#282828" stroke-opacity="0.2" stroke-width="2"/>
<path d="M269.789 7.07129L276.776 0.000221674L283.764 7.07129" stroke="#282828" stroke-opacity="0.2" stroke-width="2"/>
<path d="M282.635 7.07129L289.623 0.000221674L296.611 7.07129" stroke="#282828" stroke-opacity="0.2" stroke-width="2"/>
<path d="M295.482 7.07129L302.47 0.000221674L309.458 7.07129" stroke="#282828" stroke-opacity="0.2" stroke-width="2"/>
<path d="M308.33 7.07129L315.317 0.000221674L322.305 7.07129" stroke="#282828" stroke-opacity="0.2" stroke-width="2"/>
<path d="M321.177 7.07129L328.165 0.000221674L335.153 7.07129" stroke="#282828" stroke-opacity="0.2" stroke-width="2"/>
<path d="M334.024 7.07129L341.012 0.000221674L348 7.07129" stroke="#282828" stroke-opacity="0.2" stroke-width="2"/>
<path d="M346.871 7.07129L353.858 0.000221674L360.846 7.07129" stroke="#282828" stroke-opacity="0.2" stroke-width="2"/>
<path d="M359.718 7.07129L366.706 0.000221674L373.694 7.07129" stroke="#282828" stroke-opacity="0.2" stroke-width="2"/>
<path d="M372.565 7.07129L379.553 0.000221674L386.541 7.07129" stroke="#282828" stroke-opacity="0.2" stroke-width="2"/>
<path d="M385.412 7.07129L392.4 0.000221674L399.388 7.07129" stroke="#282828" stroke-opacity="0.2" stroke-width="2"/>
<path d="M398.259 7.07129L405.247 0.000221674L412.235 7.07129" stroke="#282828" stroke-opacity="0.2" stroke-width="2"/>
<path d="M411.106 7.07129L418.094 0.000221674L425.082 7.07129" stroke="#282828" stroke-opacity="0.2" stroke-width="2"/>
<path d="M423.953 7.07129L430.941 0.000221674L437.929 7.07129" stroke="#282828" stroke-opacity="0.2" stroke-width="2"/>
<path d="M436.8 7.07129L443.788 0.000221674L450.776 7.07129" stroke="#282828" stroke-opacity="0.2" stroke-width="2"/>
<path d="M449.647 7.07129L456.635 0.000221674L463.623 7.07129" stroke="#282828" stroke-opacity="0.2" stroke-width="2"/>
<path d="M462.494 7.07129L469.482 0.000221674L476.47 7.07129" stroke="#282828" stroke-opacity="0.2" stroke-width="2"/>
<path d="M475.341 7.07129L482.329 0.000221674L489.317 7.07129" stroke="#282828" stroke-opacity="0.2" stroke-width="2"/>
<path d="M488.188 7.07129L495.176 0.000221674L502.164 7.07129" stroke="#282828" stroke-opacity="0.2" stroke-width="2"/>
<path d="M501.036 7.07129L508.024 0.000221674L515.011 7.07129" stroke="#282828" stroke-opacity="0.2" stroke-width="2"/>
<path d="M513.883 7.07129L520.871 0.000221674L527.859 7.07129" stroke="#282828" stroke-opacity="0.2" stroke-width="2"/>
<path d="M526.729 7.07129L533.717 0.000221674L540.705 7.07129" stroke="#282828" stroke-opacity="0.2" stroke-width="2"/>
<path d="M539.577 7.07129L546.565 0.000221674L553.552 7.07129" stroke="#282828" stroke-opacity="0.2" stroke-width="2"/>
<path d="M552.424 7.07129L559.412 0.000221674L566.4 7.07129" stroke="#282828" stroke-opacity="0.2" stroke-width="2"/>
<path d="M565.271 7.07129L572.259 0.000221674L579.247 7.07129" stroke="#282828" stroke-opacity="0.2" stroke-width="2"/>
<path d="M578.118 7.07129L585.106 0.000221674L592.094 7.07129" stroke="#282828" stroke-opacity="0.2" stroke-width="2"/>
<path d="M590.965 7.07129L597.953 0.000221674L604.941 7.07129" stroke="#282828" stroke-opacity="0.2" stroke-width="2"/>
<path d="M603.812 7.07129L610.8 0.000221674L617.788 7.07129" stroke="#282828" stroke-opacity="0.2" stroke-width="2"/>
<path d="M616.659 7.07129L623.647 0.000221674L630.635 7.07129" stroke="#282828" stroke-opacity="0.2" stroke-width="2"/>
<path d="M629.506 7.07129L636.494 0.000221674L643.482 7.07129" stroke="#282828" stroke-opacity="0.2" stroke-width="2"/>
<path d="M642.354 7.07129L649.341 0.000221674L656.329 7.07129" stroke="#282828" stroke-opacity="0.2" stroke-width="2"/>
<path d="M655.2 7.07129L662.188 0.000221674L669.176 7.07129" stroke="#282828" stroke-opacity="0.2" stroke-width="2"/>
<path d="M668.047 7.07129L675.035 0.000221674L682.023 7.07129" stroke="#282828" stroke-opacity="0.2" stroke-width="2"/>
<path d="M680.895 7.07129L687.882 0.000221674L694.87 7.07129" stroke="#282828" stroke-opacity="0.2" stroke-width="2"/>
<path d="M693.742 7.07129L700.73 0.000221674L707.717 7.07129" stroke="#282828" stroke-opacity="0.2" stroke-width="2"/>
<path d="M706.589 7.07129L713.577 0.000221674L720.565 7.07129" stroke="#282828" stroke-opacity="0.2" stroke-width="2"/>
<path d="M719.436 7.07129L726.423 0.000221674L733.411 7.07129" stroke="#282828" stroke-opacity="0.2" stroke-width="2"/>
<path d="M732.283 7.07129L739.271 0.000221674L746.258 7.07129" stroke="#282828" stroke-opacity="0.2" stroke-width="2"/>
<path d="M745.13 7.07129L752.118 0.000221674L759.106 7.07129" stroke="#282828" stroke-opacity="0.2" stroke-width="2"/>
<path d="M757.977 7.07129L764.965 0.000221674L771.953 7.07129" stroke="#282828" stroke-opacity="0.2" stroke-width="2"/>
<path d="M770.824 7.07129L777.812 0.000221674L784.799 7.07129" stroke="#282828" stroke-opacity="0.2" stroke-width="2"/>
<path d="M783.671 7.07129L790.659 0.000221674L797.647 7.07129" stroke="#282828" stroke-opacity="0.2" stroke-width="2"/>
<path d="M796.518 7.07129L803.506 0.000221674L810.494 7.07129" stroke="#282828" stroke-opacity="0.2" stroke-width="2"/>
<path d="M809.365 7.07129L816.353 0.000221674L823.341 7.07129" stroke="#282828" stroke-opacity="0.2" stroke-width="2"/>
<path d="M822.212 7.07129L829.2 0.000221674L836.188 7.07129" stroke="#282828" stroke-opacity="0.2" stroke-width="2"/>
<path d="M835.059 7.07129L842.047 0.000221674L849.035 7.07129" stroke="#282828" stroke-opacity="0.2" stroke-width="2"/>
<path d="M847.906 7.07129L854.894 0.000221674L861.882 7.07129" stroke="#282828" stroke-opacity="0.2" stroke-width="2"/>
<path d="M860.753 7.07129L867.741 0.000221674L874.729 7.07129" stroke="#282828" stroke-opacity="0.2" stroke-width="2"/>
<path d="M873.601 7.07129L880.588 0.000221674L887.576 7.07129" stroke="#282828" stroke-opacity="0.2" stroke-width="2"/>
<path d="M886.447 7.07129L893.435 0.000221674L900.423 7.07129" stroke="#282828" stroke-opacity="0.2" stroke-width="2"/>
<path d="M899.294 7.07129L906.282 0.000221674L913.27 7.07129" stroke="#282828" stroke-opacity="0.2" stroke-width="2"/>
<path d="M912.142 7.07129L919.129 0.000221674L926.117 7.07129" stroke="#282828" stroke-opacity="0.2" stroke-width="2"/>
<path d="M924.989 7.07129L931.977 0.000221674L938.965 7.07129" stroke="#282828" stroke-opacity="0.2" stroke-width="2"/>
<path d="M937.836 7.07129L944.824 0.000221674L951.812 7.07129" stroke="#282828" stroke-opacity="0.2" stroke-width="2"/>
<path d="M950.683 7.07129L957.67 0.000221674L964.658 7.07129" stroke="#282828" stroke-opacity="0.2" stroke-width="2"/>
<path d="M963.53 7.07129L970.518 0.000221674L977.506 7.07129" stroke="#282828" stroke-opacity="0.2" stroke-width="2"/>
<path d="M976.377 7.07129L983.365 0.000221674L990.353 7.07129" stroke="#282828" stroke-opacity="0.2" stroke-width="2"/>
<path d="M989.224 7.07129L996.212 0.000221674L1003.2 7.07129" stroke="#282828" stroke-opacity="0.2" stroke-width="2"/>
<path d="M1002.07 7.07129L1009.06 0.000221674L1016.05 7.07129" stroke="#282828" stroke-opacity="0.2" stroke-width="2"/>
<path d="M1014.92 7.07129L1021.91 0.000221674L1028.89 7.07129" stroke="#282828" stroke-opacity="0.2" stroke-width="2"/>
<path d="M1027.77 7.07129L1034.75 0.000221674L1041.74 7.07129" stroke="#282828" stroke-opacity="0.2" stroke-width="2"/>
<path d="M1040.61 7.07129L1047.6 0.000221674L1054.59 7.07129" stroke="#282828" stroke-opacity="0.2" stroke-width="2"/>
<path d="M1053.46 7.07129L1060.45 0.000221674L1067.44 7.07129" stroke="#282828" stroke-opacity="0.2" stroke-width="2"/>
<path d="M1066.31 7.07129L1073.29 0.000221674L1080.28 7.07129" stroke="#282828" stroke-opacity="0.2" stroke-width="2"/>
<path d="M1079.15 7.07129L1086.14 0.000221674L1093.13 7.07129" stroke="#282828" stroke-opacity="0.2" stroke-width="2"/>
<path d="M1092 7.07129L1098.99 0.000221674L1105.98 7.07129" stroke="#282828" stroke-opacity="0.2" stroke-width="2"/>
<path d="M1104.85 7.07129L1111.84 0.000221674L1118.82 7.07129" stroke="#282828" stroke-opacity="0.2" stroke-width="2"/>
<path d="M1117.69 7.07129L1124.68 0.000221674L1131.67 7.07129" stroke="#282828" stroke-opacity="0.2" stroke-width="2"/>
<path d="M1130.54 7.07129L1137.53 0.000221674L1144.52 7.07129" stroke="#282828" stroke-opacity="0.2" stroke-width="2"/>
<path d="M1143.39 7.07129L1150.38 0.000221674L1157.36 7.07129" stroke="#282828" stroke-opacity="0.2" stroke-width="2"/>
<path d="M1156.24 7.07129L1163.22 0.000221674L1170.21 7.07129" stroke="#282828" stroke-opacity="0.2" stroke-width="2"/>
<path d="M1169.08 7.07129L1176.07 0.000221674L1183.06 7.07129" stroke="#282828" stroke-opacity="0.2" stroke-width="2"/>
<path d="M1181.93 7.07129L1188.92 0.000221674L1195.91 7.07129" stroke="#282828" stroke-opacity="0.2" stroke-width="2"/>
<path d="M1194.78 7.07129L1201.77 0.000221674L1208.75 7.07129" stroke="#282828" stroke-opacity="0.2" stroke-width="2"/>
<path d="M1207.62 7.07129L1214.61 0.000221674L1221.6 7.07129" stroke="#282828" stroke-opacity="0.2" stroke-width="2"/>
<path d="M1220.47 7.07129L1227.46 0.000221674L1234.45 7.07129" stroke="#282828" stroke-opacity="0.2" stroke-width="2"/>
<path d="M1233.32 7.07129L1240.31 0.000221674L1247.29 7.07129" stroke="#282828" stroke-opacity="0.2" stroke-width="2"/>
<path d="M1246.17 7.07129L1253.15 0.000221674L1260.14 7.07129" stroke="#282828" stroke-opacity="0.2" stroke-width="2"/>
<path d="M1259.01 7.07129L1266 0.000221674L1272.99 7.07129" stroke="#282828" stroke-opacity="0.2" stroke-width="2"/>
<path d="M1271.86 7.07129L1278.85 0.000221674L1285.84 7.07129" stroke="#282828" stroke-opacity="0.2" stroke-width="2"/>
<path d="M1284.71 7.07129L1291.69 0.000221674L1298.68 7.07129" stroke="#282828" stroke-opacity="0.2" stroke-width="2"/>
<path d="M1297.55 7.07129L1304.54 0.000221674L1311.53 7.07129" stroke="#282828" stroke-opacity="0.2" stroke-width="2"/>
<path d="M1310.4 7.07129L1317.39 0.000221674L1324.38 7.07129" stroke="#282828" stroke-opacity="0.2" stroke-width="2"/>
<path d="M1323.25 7.07129L1330.24 0.000221674L1337.22 7.07129" stroke="#282828" stroke-opacity="0.2" stroke-width="2"/>
<path d="M1336.09 7.07129L1343.08 0.000221674L1350.07 7.07129" stroke="#282828" stroke-opacity="0.2" stroke-width="2"/>
<path d="M1348.94 7.07129L1355.93 0.000221674L1362.92 7.07129" stroke="#282828" stroke-opacity="0.2" stroke-width="2"/>
<path d="M1361.79 7.07129L1368.78 0.000221674L1375.76 7.07129" stroke="#282828" stroke-opacity="0.2" stroke-width="2"/>
<path d="M1374.64 7.07129L1381.62 0.000221674L1388.61 7.07129" stroke="#282828" stroke-opacity="0.2" stroke-width="2"/>
<path d="M1387.48 7.07129L1394.47 0.000221674L1401.46 7.07129" stroke="#282828" stroke-opacity="0.2" stroke-width="2"/>
<path d="M1400.33 7.07129L1407.32 0.000221674L1414.31 7.07129" stroke="#282828" stroke-opacity="0.2" stroke-width="2"/>
<path d="M1413.18 7.07129L1420.17 0.000221674L1427.15 7.07129" stroke="#282828" stroke-opacity="0.2" stroke-width="2"/>
<path d="M1426.02 7.07129L1433.01 0.000221674L1440 7.07129" stroke="#282828" stroke-opacity="0.2" stroke-width="2"/>
</g>
<defs>
<clipPath id="clip0_5_477">
<rect width="1440" height="30" fill="white"/>
</clipPath>
</defs>
</svg>
