<svg width="128" height="130" viewBox="0 0 128 130" fill="none" xmlns="http://www.w3.org/2000/svg">
<path d="M86.5051 25.1534L86.607 28.3155C86.6259 28.8013 87.1264 29.1235 87.5817 28.9332L90.5155 27.7062C101.964 22.9275 112.702 35.9249 105.72 46.1094L104.383 48.0645C103.889 48.7846 104.28 49.7764 105.139 49.9751L107.462 50.5182C119.585 53.3393 120.6 70.0857 108.898 74.2317L105.894 75.2954C105.433 75.4577 105.283 76.0309 105.605 76.3986L107.701 78.7989C115.867 88.1449 106.769 102.241 94.8196 98.7602L91.4976 97.7908C91.1526 97.6872 90.8071 97.9656 90.8397 98.3232L91.1403 101.741C92.2306 114.042 76.4979 120.102 68.8645 110.322L67.2469 108.252C66.7848 107.656 65.8616 107.704 65.4722 108.353L64.116 110.586C57.7142 121.14 41.3502 116.852 40.9476 104.515L40.8497 101.591C40.8288 100.986 40.2074 100.592 39.6488 100.822L36.9326 101.954C25.4839 106.733 14.7456 93.7354 21.7284 83.5509L22.9576 81.7521C23.5042 80.96 23.0731 79.8656 22.1275 79.6441L19.992 79.1438C7.86969 76.3226 6.85446 59.5762 18.556 55.4302L20.6436 54.6929C21.5443 54.3756 21.8383 53.2539 21.209 52.5356L19.7513 50.8692C11.5856 41.5232 20.6836 27.4272 32.6331 30.9079L35.4063 31.7137C36.0172 31.8936 36.6171 31.4053 36.5637 30.7721L36.314 27.9204C35.2237 15.6203 50.9564 9.56003 58.5898 19.3396L60.1118 21.2929C60.6248 21.9477 61.6369 21.8902 62.0611 21.1846L63.3367 19.0818C69.7384 8.52768 86.1025 12.8161 86.5051 25.1534Z" fill="#CECA9D"/>
<g clip-path="url(#clip0_5_308)">
<path d="M75.501 77.7511C75.4692 75.8594 73.4501 74.9963 71.9926 74.4812C70.0261 73.7851 67.9363 73.4584 65.999 72.6694C65.3742 72.4153 64.6688 72.1099 64.2477 71.5475C64.7496 70.4135 68.2052 71.3844 69.0785 71.5454C70.6014 71.829 72.3992 72.262 73.8681 71.7128C74.819 71.3568 75.9953 70.7251 76.7247 69.9922C77.6594 69.0544 77.9665 67.6446 78.0436 66.3114C78.1021 65.2796 77.6927 64.2859 77.1743 63.4143C75.0847 59.9061 70.9911 57.8213 66.9894 58.2265C65.2524 58.4016 63.5096 59.0397 62.2056 60.2649C60.9016 61.4901 60.096 63.3506 60.3443 65.1333C60.4976 66.2306 61.0307 67.2115 61.7248 68.0287C62.0827 68.4465 62.4828 68.8225 62.9063 69.1645C63.2184 69.4171 63.815 70.0179 64.212 70.0843C59.444 69.3043 58.7639 75.1351 63.3794 76.3221C65.8328 77.284 74.4031 79.7158 69.4836 83.2554C67.7213 84.6116 58.4009 82.0083 62.776 78.9739C65.5989 77.4964 60.0278 74.6879 58.4593 75.7735C50.3304 83.8558 77.7789 89.7057 75.4981 77.7528L75.501 77.7511ZM68.8009 59.6705C72.9383 59.8232 73.5727 69.9962 69.4698 70.7415C65.0693 70.545 64.4553 60.5054 68.8009 59.6705Z" fill="#F0EAE6"/>
<path d="M41.1962 57.9695C42.2202 52.0028 50.4777 48.9086 53.9356 53.9154C55.1413 50.8314 55.29 48.4622 53.4886 46.0515C55.4804 44.2884 63.6618 43.8561 60.9882 49.4156C60.8566 51.0485 55.4333 67.1648 57.1135 68.3007C57.9352 69.7615 58.4175 70.7342 57.068 70.938C54.9616 70.1599 51.162 70.3821 51.0237 67.0764C45.794 71.4964 39.0531 63.8489 41.1968 57.9672L41.1962 57.9695ZM49.4735 52.8967C46.3088 52.213 44.39 65.2802 48.215 66.717C52.9054 66.6806 53.6161 54.1782 49.4735 52.8967Z" fill="#F0EAE6"/>
<path d="M77.989 63.0854C79.1564 61.6435 79.1502 59.6517 77.9753 58.6367C76.8003 57.6217 74.9016 57.9679 73.7342 59.4098C72.5669 60.8518 72.5731 62.8435 73.748 63.8585C74.923 64.8735 76.8217 64.5274 77.989 63.0854Z" fill="#F0EAE6"/>
<path d="M85.4426 76.7415L86.6013 76.7695C87.0981 76.7827 87.2787 76.0937 86.8393 75.8615L85.8123 75.3168C84.4471 74.589 83.6168 73.1255 83.6737 71.5471L83.7168 70.3577C83.7361 69.8493 83.0649 69.6734 82.8323 70.1259L82.2866 71.1835C81.5576 72.5896 80.1162 73.4578 78.5739 73.4199L77.4118 73.3909C76.915 73.3778 76.7345 74.0667 77.1739 74.2989L78.2008 74.8436C79.566 75.5714 80.3963 77.035 80.3395 78.6134L80.2963 79.8027C80.2771 80.3112 80.9482 80.487 81.1809 80.0345L81.7266 78.9769C82.4555 77.5708 83.8969 76.7026 85.4392 76.7406L85.4426 76.7415Z" fill="#F0EAE6"/>
</g>
<defs>
<clipPath id="clip0_5_308">
<rect width="50.0312" height="37.0231" fill="white" transform="translate(44.5781 41.1964) rotate(14.6851)"/>
</clipPath>
</defs>
</svg>
