<svg width="97" height="29" viewBox="0 0 97 29" fill="none" xmlns="http://www.w3.org/2000/svg">
<path d="M85.7906 26.9379L83.7412 16.398L93.4952 13.6028L96.2791 15.2486L85.5754 18.2235L86.2808 17.0304L88.6313 28.6172L85.7906 26.9379ZM77.7798 22.202L85.6169 8.94531L87.7948 10.2328L79.9577 23.4895L77.7798 22.202Z" fill="#282828"/>
<path d="M70.0986 12.8086L67.2861 2.15308L70.0651 3.06883L72.2091 11.5352L70.9137 11.1083L77.6708 5.5751L80.4081 6.47708L71.7701 13.3594L70.0986 12.8086ZM67.8363 18.549L70.26 11.194L72.6629 11.9858L70.2392 19.3408L67.8363 18.549Z" fill="#282828"/>
<path d="M49.7038 13.5027L59.3574 2.61372L62.3096 2.93872L52.656 13.8277L49.7038 13.5027ZM49.5112 15.2521L49.7038 13.5027L51.9289 13.1944L60.8948 14.1814L60.642 16.4775L49.5112 15.2521ZM51.4466 2.29613L51.6994 0L62.5022 1.18929L62.3096 2.93872L60.0626 3.24467L51.4466 2.29613Z" fill="#282828"/>
<path d="M41.6871 15.9554C40.4737 16.0521 39.4254 15.915 38.5425 15.544C37.6596 15.173 36.848 14.5903 36.1079 13.7959L37.6821 11.949C38.1551 12.5292 38.6979 12.9715 39.3107 13.2758C39.9223 13.5654 40.6814 13.6741 41.5878 13.6019C42.4358 13.5343 43.0943 13.3052 43.5635 12.9147C44.0472 12.523 44.2646 12.0202 44.2157 11.4061C44.1749 10.8944 44.0101 10.4882 43.7213 10.1875C43.4325 9.88687 43.0606 9.65168 42.6057 9.48196C42.1642 9.29645 41.6739 9.14426 41.1347 9.02539C40.609 8.89074 40.0749 8.74204 39.5322 8.57932C39.003 8.4008 38.5063 8.1682 38.0421 7.88152C37.5924 7.59367 37.2157 7.20437 36.9117 6.71364C36.6077 6.22291 36.4243 5.58279 36.3614 4.7933C36.2891 3.88684 36.4472 3.10179 36.8357 2.43816C37.2377 1.75874 37.8054 1.22059 38.5388 0.823727C39.2723 0.426859 40.1069 0.191133 41.0426 0.116547C42.0514 0.0361337 42.9662 0.161835 43.7872 0.493651C44.6228 0.824302 45.3136 1.27684 45.8596 1.85127L44.2854 3.6982C43.8072 3.23607 43.3175 2.90727 42.8164 2.71181C42.3287 2.50055 41.7779 2.4194 41.1638 2.46835C40.4036 2.52895 39.8164 2.73024 39.4022 3.07223C39.0027 3.41305 38.8251 3.86125 38.8694 4.41682C38.9067 4.88467 39.0686 5.25431 39.355 5.52574C39.6403 5.78255 40.0031 5.9964 40.4435 6.16728C40.8972 6.32238 41.3869 6.46726 41.9126 6.60192C42.4529 6.73541 42.9877 6.89141 43.5169 7.06992C44.0607 7.24727 44.5586 7.49449 45.0105 7.81158C45.476 8.11289 45.8618 8.52353 46.1681 9.0435C46.4744 9.56347 46.6602 10.2328 46.7254 11.0516C46.835 12.4259 46.432 13.5541 45.5165 14.4363C44.6157 15.3174 43.3392 15.8237 41.6871 15.9554Z" fill="#282828"/>
<path d="M27.0838 19.1571C26.0345 19.487 24.9935 19.599 23.9609 19.4931C22.9282 19.3872 21.9614 19.0992 21.0603 18.6291C20.1548 18.145 19.3632 17.5098 18.6856 16.7235C18.0175 15.9188 17.5186 14.9918 17.1887 13.9424C16.8589 12.893 16.7399 11.8542 16.8318 10.826C16.9377 9.79339 17.2187 8.82874 17.6748 7.93204C18.1405 7.01695 18.7617 6.22977 19.5384 5.57052C20.3247 4.89288 21.2426 4.38913 22.2919 4.05928C23.3413 3.72942 24.3753 3.61964 25.3939 3.72993C26.4221 3.82183 27.389 4.10983 28.2945 4.59391C29.1956 5.064 29.9802 5.70139 30.6482 6.5061C31.3259 7.29241 31.8296 8.21026 32.1595 9.25964C32.4893 10.309 32.6035 11.357 32.502 12.4036C32.4101 13.4318 32.1291 14.3965 31.659 15.2976C31.2029 16.1943 30.5817 16.9814 29.7954 17.6591C29.0231 18.3323 28.1192 18.8317 27.0838 19.1571ZM26.3162 16.8617C27.3096 16.5494 28.1067 16.0529 28.7075 15.3721C29.3223 14.6868 29.7165 13.8865 29.8899 12.971C30.073 12.0371 30.0018 11.0525 29.6763 10.0171C29.4344 9.24757 29.0886 8.58756 28.6388 8.0371C28.1987 7.46825 27.6822 7.02333 27.0893 6.70234C26.492 6.36736 25.846 6.1707 25.1512 6.11237C24.4704 6.04963 23.7592 6.13481 23.0176 6.36791C22.0382 6.67578 21.2411 7.17232 20.6263 7.85755C20.0211 8.52439 19.6247 9.31775 19.4373 10.2376C19.2638 11.1531 19.3398 12.1285 19.6653 13.1639C19.9072 13.9335 20.2504 14.6097 20.695 15.1925C21.1491 15.757 21.6656 16.2019 22.2445 16.5273C22.8374 16.8483 23.4834 17.0449 24.1826 17.1172C24.8774 17.1756 25.5886 17.0904 26.3162 16.8617Z" fill="#282828"/>
<path d="M15.883 23.233L5.64707 19.9903L7.85895 10.0877L10.636 8.43042L8.12767 19.2529L7.41741 18.0627L18.7168 21.5419L15.883 23.233ZM7.89181 28.0019L0 14.7777L2.17255 13.4812L10.0644 26.7054L7.89181 28.0019Z" fill="#282828"/>
</svg>
