<svg width="59" height="44" viewBox="0 0 59 44" fill="none" xmlns="http://www.w3.org/2000/svg">
<g clip-path="url(#clip0_51_4762)">
<path d="M46.2028 32.7077C45.601 30.5426 43.0397 30.1587 41.2231 30.0057C38.7718 29.7978 36.2902 30.0519 33.8443 29.7285C33.0556 29.6246 32.1597 29.486 31.5111 28.9664C31.7447 27.5114 35.9769 27.5865 37.0212 27.5086C38.8432 27.3758 41.0235 27.3319 42.535 26.258C43.5133 25.5622 44.6663 24.4816 45.2791 23.4193C46.0651 22.0596 45.9939 20.3464 45.6834 18.7904C45.4416 17.5865 44.6776 16.5675 43.8256 15.7217C40.3932 12.3181 35.1002 11.1547 30.6564 12.8262C28.7272 13.5508 26.9299 14.8094 25.8086 16.6108C24.6874 18.4122 24.3246 20.7938 25.1408 22.7684C25.6438 23.9837 26.5452 24.9508 27.5812 25.6812C28.1144 26.0536 28.6832 26.3654 29.2686 26.631C29.7001 26.8273 30.5602 27.3382 31.0329 27.2949C25.3607 27.8348 26.328 34.7429 31.9481 34.717C35.0342 35.0836 45.5378 35.2972 40.984 40.8486C39.3791 42.9386 27.9687 42.7539 32.0525 37.9473C34.8309 35.3982 27.6362 33.848 26.1714 35.5686C19.3147 47.3093 52.3752 45.7648 46.2001 32.7106L46.2028 32.7077ZM33.1545 13.9405C37.9198 12.8695 41.6848 24.3735 37.2273 26.4664C32.1487 27.5663 28.4469 16.2095 33.1545 13.9405Z" fill="#282828"/>
<path d="M1.1568 20.3017C0.541213 13.1337 9.0358 7.08872 14.4772 11.8029C14.9306 7.89414 14.392 5.12568 11.6163 2.89705C13.3614 0.270044 22.565 -2.69184 21.1772 4.50501C21.5152 6.42187 20.1466 26.5834 22.4029 27.3831C23.777 28.815 24.6179 29.7878 23.1394 30.4287C20.5039 30.1689 16.236 31.569 15.09 27.8103C10.4456 34.4674 0.469761 27.7064 1.1568 20.2988V20.3017ZM9.08252 11.9761C5.26806 12.1435 6.98567 27.7439 11.7785 28.2434C17.1182 26.7884 14.1914 12.2013 9.08252 11.9761Z" fill="#282828"/>
<path d="M44.6573 15.0981C45.5578 13.0887 44.9553 10.8008 43.3116 9.98792C41.6679 9.17504 39.6053 10.145 38.7048 12.1544C37.8043 14.1638 38.4067 16.4517 40.0505 17.2646C41.6942 18.0774 43.7567 17.1075 44.6573 15.0981Z" fill="#282828"/>
<path d="M57.2421 28.552L58.5722 28.2351C59.1429 28.1006 59.1429 27.2542 58.5722 27.1196L57.2379 26.8028C55.463 26.3774 54.0783 24.945 53.6713 23.1133L53.365 21.733C53.2349 21.1427 52.4167 21.1427 52.2866 21.733L51.9803 23.1133C51.5691 24.9494 50.1844 26.3817 48.4137 26.8028L47.0794 27.1196C46.5087 27.2542 46.5087 28.1006 47.0794 28.2351L48.4137 28.552C50.1886 28.9774 51.5733 30.4097 51.9803 32.2415L52.2866 33.6217C52.4167 34.2121 53.2349 34.2121 53.365 33.6217L53.6713 32.2415C54.0825 30.4054 55.4672 28.973 57.2379 28.552H57.2421Z" fill="#282828"/>
</g>
<defs>
<clipPath id="clip0_51_4762">
<rect width="59" height="44" fill="white"/>
</clipPath>
</defs>
</svg>
