<svg width="147" height="53" viewBox="0 0 147 53" fill="none" xmlns="http://www.w3.org/2000/svg">
<path d="M131.281 45.2462L142.303 39.1412L143.306 40.952L132.284 47.057L131.281 45.2462ZM131.97 46.4901L133.624 45.5744L137.042 51.7468L135.389 52.6626L131.97 46.4901ZM136.804 43.8127L138.395 42.9318L141.517 48.5689L139.927 49.4497L136.804 43.8127ZM141.339 41.3009L142.992 40.3852L146.368 46.4789L144.714 47.3946L141.339 41.3009Z" fill="#282828"/>
<path d="M128.194 40.6834L138.417 33.3187L139.627 34.9983L129.404 42.363L128.194 40.6834Z" fill="#282828"/>
<path d="M125.035 30.0005L126.359 28.7808L128.493 31.0973C128.786 31.415 129.104 31.636 129.447 31.7605C129.807 31.8856 130.167 31.913 130.526 31.8428C130.895 31.7645 131.238 31.5789 131.555 31.2862C131.873 30.9935 132.082 30.6708 132.181 30.3182C132.289 29.9574 132.291 29.5966 132.187 29.2356C132.1 28.8754 131.91 28.5364 131.617 28.2187L129.483 25.9022L130.806 24.6825L133.014 27.0784C133.551 27.6609 133.911 28.2913 134.096 28.9697C134.289 29.657 134.291 30.3323 134.102 30.9954C133.922 31.6675 133.541 32.2718 132.958 32.8085C132.376 33.3452 131.742 33.6759 131.058 33.8008C130.381 33.9345 129.709 33.8773 129.039 33.6291C128.378 33.3898 127.779 32.9789 127.243 32.3964L125.035 30.0005ZM120.577 32.1748L129.843 23.6367L131.245 25.159L121.979 33.6971L120.577 32.1748Z" fill="#282828"/>
<path d="M111.786 25.0634L119.513 15.111L121.148 16.3804L113.421 26.3329L111.786 25.0634ZM112.909 25.9355L114.068 24.4426L119.642 28.7698L118.483 30.2627L112.909 25.9355ZM116.298 21.5706L117.413 20.1346L122.503 24.0865L121.388 25.5225L116.298 21.5706ZM119.477 17.4759L120.636 15.983L126.139 20.255L124.98 21.7479L119.477 17.4759Z" fill="#282828"/>
<path d="M102.608 19.7816L108.669 8.73511L110.484 9.73084L104.423 20.7773L102.608 19.7816ZM103.855 20.4656L104.764 18.8086L110.54 21.9777L109.631 23.6346L103.855 20.4656Z" fill="#282828"/>
<path d="M98.1064 17.9763L94.7534 9.85629L102.122 6.03275L104.622 6.90107L96.5205 11.0228L96.8926 9.95158L100.657 18.8624L98.1064 17.9763ZM90.9141 15.4777L95.049 3.57544L97.0043 4.25474L92.8694 16.157L90.9141 15.4777Z" fill="#282828"/>
<path d="M83.8391 14.2541C82.8564 14.0915 82.0511 13.7759 81.4233 13.3071C80.7954 12.8383 80.2659 12.2155 79.835 11.4387L81.4493 10.2827C81.7104 10.8368 82.0542 11.2951 82.4807 11.6576C82.9092 12.0082 83.4905 12.2443 84.2245 12.3657C84.9112 12.4794 85.4793 12.4274 85.9288 12.2099C86.3902 11.9943 86.662 11.6379 86.7443 11.1407C86.8129 10.7263 86.7622 10.3713 86.5922 10.0755C86.4222 9.77982 86.1733 9.5197 85.8455 9.29518C85.5316 9.06079 85.1723 8.84321 84.7676 8.64246C84.3768 8.43182 83.982 8.20837 83.5832 7.9721C83.1982 7.72595 82.8497 7.44326 82.5376 7.12403C82.2374 6.80676 82.015 6.42331 81.8705 5.97368C81.7259 5.52405 81.7065 4.97958 81.8123 4.34028C81.9338 3.60626 82.2142 3.01409 82.6536 2.56379C83.1068 2.1036 83.6638 1.7883 84.3245 1.61787C84.9852 1.44744 85.6944 1.42492 86.452 1.55029C87.2689 1.68547 87.9706 1.96578 88.557 2.39122C89.1553 2.81862 89.6145 3.31424 89.9348 3.87809L88.3204 5.03404C88.0318 4.57275 87.7079 4.21506 87.3485 3.96099C87.003 3.69704 86.5816 3.52392 86.0844 3.44164C85.4687 3.33977 84.9627 3.38376 84.5664 3.57361C84.182 3.76541 83.9525 4.08626 83.8781 4.53614C83.8154 4.91499 83.871 5.24044 84.0449 5.51248C84.2208 5.77268 84.4667 6.01406 84.7826 6.23662C85.1123 6.4493 85.4726 6.66096 85.8634 6.87159C86.2661 7.08419 86.66 7.31356 87.0449 7.55971C87.4418 7.80782 87.7883 8.10235 88.0846 8.4433C88.3948 8.77437 88.6201 9.17655 88.7607 9.64986C88.9014 10.1232 88.9168 10.6913 88.8071 11.3543C88.623 12.4672 88.0804 13.2835 87.1794 13.8034C86.2903 14.3253 85.1769 14.4755 83.8391 14.2541Z" fill="#282828"/>
<path d="M61.0795 14.5095L55.6191 2.42296L57.6415 2.206L61.7727 11.5205L61.2358 11.5781L63.2255 1.60695L64.6573 1.45334L68.7168 10.7755L68.1799 10.8331L70.2412 0.854293L72.2636 0.637329L69.4913 13.6071L68.0595 13.7607L63.984 4.45831L64.5209 4.40071L62.5113 14.3559L61.0795 14.5095Z" fill="#282828"/>
<path d="M43.1163 19.9195L38.3491 8.25611L40.2652 7.47293L45.0324 19.1363L43.1163 19.9195ZM44.4326 19.3815L43.7175 17.6319L50.249 14.9623L50.9641 16.7118L44.4326 19.3815ZM42.3419 14.2662L41.654 12.5834L47.619 10.1453L48.3068 11.8282L42.3419 14.2662ZM40.3805 9.4676L39.6654 7.7181L46.1136 5.08252L46.8287 6.83202L40.3805 9.4676Z" fill="#282828"/>
<path d="M30.523 28.2143L19.978 20.1704L21.6548 19.0191L29.7136 25.2547L29.2684 25.5603L26.2846 15.8403L27.4717 15.0252L35.4711 21.3015L35.0259 21.6072L32.1014 11.8464L33.7782 10.6951L37.4973 23.4257L36.3101 24.2408L28.3061 17.9895L28.7513 17.6838L31.7101 27.3992L30.523 28.2143Z" fill="#282828"/>
<path d="M22.0058 36.3629C21.4055 37.0334 20.72 37.5472 19.9494 37.9043C19.1788 38.2613 18.3784 38.4628 17.5481 38.5086C16.7088 38.5465 15.8866 38.4305 15.0813 38.1606C14.2752 37.8737 13.5368 37.4301 12.8662 36.8298C12.1957 36.2295 11.6779 35.5486 11.3129 34.7869C10.9558 34.0163 10.7504 33.2203 10.6965 32.399C10.6416 31.5607 10.7496 30.7474 11.0205 29.9591C11.2904 29.1538 11.7255 28.4159 12.3258 27.7454C12.9261 27.0748 13.6076 26.5655 14.3702 26.2174C15.1319 25.8524 15.9323 25.6509 16.7715 25.613C17.6018 25.5671 18.4201 25.6876 19.2263 25.9745C20.0315 26.2444 20.7694 26.6795 21.44 27.2798C22.1105 27.8801 22.6288 28.5696 22.9947 29.3482C23.3598 30.1098 23.5652 30.9058 23.6111 31.7361C23.665 32.5574 23.557 33.3707 23.2871 34.176C23.0252 34.9723 22.5981 35.7013 22.0058 36.3629ZM20.5065 35.069C21.0748 34.4343 21.428 33.7519 21.5661 33.0219C21.7123 32.283 21.655 31.5553 21.3945 30.8388C21.133 30.1054 20.6714 29.4426 20.0098 28.8503C19.5181 28.4101 18.999 28.0903 18.4526 27.8911C17.9053 27.6749 17.356 27.5778 16.8049 27.5998C16.2448 27.6137 15.7081 27.7454 15.195 27.9947C14.6899 28.2351 14.2253 28.5922 13.8011 29.066C13.2408 29.6919 12.8876 30.3743 12.7415 31.1132C12.5944 31.8352 12.6471 32.5588 12.8997 33.2842C13.1603 34.0007 13.6213 34.655 14.2829 35.2473C14.7747 35.6876 15.2987 36.0198 15.855 36.244C16.4103 36.4512 16.9596 36.5483 17.5027 36.5353C18.0539 36.5133 18.5905 36.3817 19.1126 36.1404C19.6257 35.8911 20.0903 35.534 20.5065 35.069Z" fill="#282828"/>
<path d="M10.9322 52.1451L0.0478516 45.7975L0.773284 44.5536L3.14314 45.2064L11.975 50.3569L10.9322 52.1451ZM15.3301 44.6038L3.02534 46.1587L0.773284 44.5536L13.0781 42.9987L15.3301 44.6038ZM15.3301 44.6038L13.1002 44.0327L4.12841 38.8005L5.17122 37.0123L16.0556 43.3599L15.3301 44.6038Z" fill="#282828"/>
</svg>
